<svg width="36" height="40.5116" viewBox="0 0 36 40.5116" fill="none" xmlns="http://www.w3.org/2000/svg">
<g>
<mask id="marker-amam-stroke" fill="white">
<path d="M18 0C27.9411 0 36 8.05985 36 18.001C35.9998 26.1522 30.5809 33.0359 23.1494 35.251L18.9717 40.0684C18.459 40.6594 17.541 40.6594 17.0283 40.0684L12.8506 35.251C5.41921 33.0359 0.000216385 26.1522 0 18.001C0 8.05989 8.05893 6.5974e-05 18 0Z"/>
</mask>
<path d="M18 0C27.9411 0 36 8.05985 36 18.001C35.9998 26.1522 30.5809 33.0359 23.1494 35.251L18.9717 40.0684C18.459 40.6594 17.541 40.6594 17.0283 40.0684L12.8506 35.251C5.41921 33.0359 0.000216385 26.1522 0 18.001C0 8.05989 8.05893 6.5974e-05 18 0Z" fill="url(#marker-amam-gradient)"/>
<path d="M18 0V-1.5H18L18 0ZM36 18.001L37.5 18.001V18.001H36ZM23.1494 35.251L22.7209 33.8135L22.3024 33.9382L22.0162 34.2682L23.1494 35.251ZM18.9717 40.0684L20.1048 41.0512L20.1049 41.0511L18.9717 40.0684ZM17.0283 40.0684L15.8951 41.0511L15.8952 41.0512L17.0283 40.0684ZM12.8506 35.251L13.9838 34.2682L13.6976 33.9382L13.2791 33.8135L12.8506 35.251ZM0 18.001H-1.5V18.001L0 18.001ZM18 0V1.5C27.1126 1.5 34.5 8.88817 34.5 18.001H36H37.5C37.5 7.23153 28.7697 -1.5 18 -1.5V0ZM36 18.001L34.5 18.0009C34.4998 25.4705 29.5345 31.7826 22.7209 33.8135L23.1494 35.251L23.5779 36.6885C31.6273 34.2892 37.4998 26.834 37.5 18.001L36 18.001ZM23.1494 35.251L22.0162 34.2682L17.8385 39.0856L18.9717 40.0684L20.1049 41.0511L24.2826 36.2337L23.1494 35.251ZM18.9717 40.0684L17.8386 39.0855C17.924 38.987 18.076 38.987 18.1614 39.0855L17.0283 40.0684L15.8952 41.0512C17.0059 42.3317 18.9941 42.3317 20.1048 41.0512L18.9717 40.0684ZM17.0283 40.0684L18.1615 39.0856L13.9838 34.2682L12.8506 35.251L11.7174 36.2337L15.8951 41.0511L17.0283 40.0684ZM12.8506 35.251L13.2791 33.8135C6.46563 31.7826 1.5002 25.4704 1.5 18.0009L0 18.001L-1.5 18.001C-1.49977 26.834 4.37279 34.2892 12.4221 36.6885L12.8506 35.251ZM0 18.001H1.5C1.5 8.88822 8.88746 1.50006 18 1.5L18 0L18 -1.5C7.23041 -1.49993 -1.5 7.23156 -1.5 18.001H0Z" fill="white" mask="url(#marker-amam-stroke)"/>
</g>
<g transform="translate(12.19 10.05)">
<path d="M0 0.400408V16.3996C0 16.6207 0.179269 16.8 0.400408 16.8H3.71017V14.7566C3.71017 13.5784 4.65599 12.5882 5.83406 12.6003C7.01214 12.6125 7.90995 13.5183 7.90995 14.7001V16.8H11.2197C11.4409 16.8 11.6201 16.6207 11.6201 16.3996V0.400408C11.6201 0.179269 11.4409 0 11.2197 0H0.400408C0.179269 0 0 0.179269 0 0.400408ZM4.35949 10.4999H2.5003C2.27916 10.4999 2.09989 10.3206 2.09989 10.0995V8.24029C2.09989 8.01915 2.27916 7.83989 2.5003 7.83989H4.35949C4.58063 7.83989 4.7599 8.01915 4.7599 8.24029V10.0995C4.7599 10.3206 4.58063 10.4999 4.35949 10.4999ZM4.35949 5.24995H2.5003C2.27916 5.24995 2.09989 5.07068 2.09989 4.84954V3.06041C2.09989 2.83928 2.27916 2.66001 2.5003 2.66001H4.35949C4.58063 2.66001 4.7599 2.83928 4.7599 3.06041V4.84954C4.7599 5.07068 4.58063 5.24995 4.35949 5.24995ZM9.11982 10.4999H7.26063C7.03949 10.4999 6.86022 10.3206 6.86022 10.0995V8.24029C6.86022 8.01915 7.03949 7.83989 7.26063 7.83989H9.11982C9.34096 7.83989 9.52023 8.01915 9.52023 8.24029V10.0995C9.52023 10.3206 9.34096 10.4999 9.11982 10.4999ZM9.11982 5.24995H7.26063C7.03949 5.24995 6.86022 5.07068 6.86022 4.84954V3.06041C6.86022 2.83928 7.03949 2.66001 7.26063 2.66001H9.11982C9.34096 2.66001 9.52023 2.83928 9.52023 3.06041V4.84954C9.52023 5.07068 9.34096 5.24995 9.11982 5.24995Z" fill="white"/>
</g>
<defs>
<linearGradient id="marker-amam-gradient" x1="6.5" y1="4.25586" x2="27.5" y2="38.2559" gradientUnits="userSpaceOnUse">
<stop stop-color="#00DEBD"/>
<stop offset="1" stop-color="#00D3F3"/>
</linearGradient>
</defs>
</svg>
