<svg width="16" height="16" viewBox="0 0 16 16" fill="none" xmlns="http://www.w3.org/2000/svg">
<g transform="translate(0.0000 0.0000)">
<g id="Group 15">
<path id="Union" d="M8 0C12.4001 2.14128e-05 16 3.59988 16 8C16 12.4002 12.4002 16 8 16C3.59983 16 0 12.4002 0 8C4.25141e-05 3.59986 3.59985 0 8 0Z" fill="#19BF8D"/>
<g id="Exclude">
<path d="M8.77404 11.1238C8.77761 10.6267 8.35675 10.2181 7.83603 10.2147C7.31531 10.2113 6.88731 10.6131 6.88374 11.1101C6.88018 11.6072 7.30103 12.0157 7.82175 12.0191C8.34247 12.0225 8.77047 11.6208 8.77404 11.1238Z" fill="white"/>
<path d="M9.58722 4.32826C9.0665 4.07973 8.50655 3.9912 7.99653 3.98098C7.53287 3.97758 7.19046 4.03207 6.82311 4.16484C6.30952 4.34869 5.86726 4.63467 5.54627 5.06705C5.33228 5.35303 5.20744 5.67307 5.21814 6.03395C5.21814 6.2995 5.39647 6.531 5.65682 6.61612C5.74598 6.64335 5.83872 6.66378 5.93501 6.66719C6.2453 6.68421 6.49142 6.57186 6.65192 6.30971C6.69471 6.23821 6.73393 6.1633 6.77316 6.0918C6.84092 5.96243 6.90159 5.82967 6.98005 5.70371C7.11558 5.4756 7.35098 5.31558 7.62204 5.27132C7.82532 5.23388 8.03218 5.23046 8.23546 5.26451C8.79185 5.35302 9.11641 5.80583 9.00228 6.33012C8.95592 6.54121 8.83823 6.72848 8.6706 6.86807C8.45304 7.05532 8.21763 7.23234 7.99294 7.40937C7.76825 7.58641 7.53999 7.75666 7.35809 7.97455C7.12984 8.24691 7.00856 8.55331 7.04779 8.90737C7.07989 9.19676 7.27962 9.4351 7.55781 9.50659C7.66837 9.53042 7.78251 9.54063 7.89664 9.53382C8.17126 9.52021 8.37102 9.39424 8.47802 9.14912C8.51369 9.07081 8.54934 8.98908 8.57788 8.90737C8.65278 8.68949 8.80257 8.50224 8.99873 8.36946C9.12356 8.28435 9.24839 8.19584 9.37322 8.11073C9.65498 7.91667 9.93318 7.7192 10.1757 7.48089C10.7749 6.8919 10.9247 6.20076 10.6501 5.42453C10.4682 4.91385 10.083 4.56657 9.58722 4.32826Z" fill="white"/>
</g>
</g>
</g>
</svg>
