<svg width="20" height="20" viewBox="0 0 20 20" fill="none" xmlns="http://www.w3.org/2000/svg">
<path d="M17.6823 9.34894H6.36271C6.00314 9.34894 5.71167 9.64041 5.71167 9.99998C5.71167 10.3596 6.00314 10.651 6.36271 10.651H17.6823C18.0419 10.651 18.3334 10.3596 18.3334 9.99998C18.3334 9.64041 18.0419 9.34894 17.6823 9.34894Z" fill="#7D848F"/>
<path d="M17.6823 4.46613H6.36271C6.00314 4.46613 5.71167 4.7576 5.71167 5.11717C5.71167 5.47674 6.00314 5.76821 6.36271 5.76821H17.6823C18.0419 5.76821 18.3334 5.47674 18.3334 5.11717C18.3334 4.7576 18.0419 4.46613 17.6823 4.46613Z" fill="#7D848F"/>
<path d="M17.6823 14.2318H6.36271C6.00314 14.2318 5.71167 14.5233 5.71167 14.8828C5.71167 15.2424 6.00314 15.5339 6.36271 15.5339H17.6823C18.0419 15.5339 18.3334 15.2424 18.3334 14.8828C18.3334 14.5233 18.0419 14.2318 17.6823 14.2318Z" fill="#7D848F"/>
<path d="M2.54566 5.99608C3.03106 5.99608 3.42457 5.60258 3.42457 5.11717C3.42457 4.63177 3.03106 4.23827 2.54566 4.23827C2.06025 4.23827 1.66675 4.63177 1.66675 5.11717C1.66675 5.60258 2.06025 5.99608 2.54566 5.99608Z" fill="#7D848F"/>
<path d="M2.54566 10.8789C3.03106 10.8789 3.42457 10.4854 3.42457 10C3.42457 9.51459 3.03106 9.12109 2.54566 9.12109C2.06025 9.12109 1.66675 9.51459 1.66675 10C1.66675 10.4854 2.06025 10.8789 2.54566 10.8789Z" fill="#7D848F"/>
<path d="M2.54566 15.7618C3.03106 15.7618 3.42457 15.3683 3.42457 14.8828C3.42457 14.3974 3.03106 14.0039 2.54566 14.0039C2.06025 14.0039 1.66675 14.3974 1.66675 14.8828C1.66675 15.3683 2.06025 15.7618 2.54566 15.7618Z" fill="#7D848F"/>
</svg>
