<svg width="20" height="20" viewBox="0 0 20 20" fill="none" xmlns="http://www.w3.org/2000/svg">
<g id="Icon/20">
<g id="Property 1=search">
<path id="Ellipse 298 (Stroke)" d="M14.2501 9.00006C14.2501 6.10057 11.8996 3.75006 9.00012 3.75006C6.10063 3.75006 3.75012 6.10057 3.75012 9.00006C3.75012 11.8996 6.10063 14.2501 9.00012 14.2501V15.5001C5.41027 15.5001 2.50012 12.5899 2.50012 9.00006C2.50012 5.41021 5.41027 2.50006 9.00012 2.50006C12.59 2.50006 15.5001 5.41021 15.5001 9.00006C15.5001 12.5899 12.59 15.5001 9.00012 15.5001V14.2501C11.8996 14.2501 14.2501 11.8996 14.2501 9.00006Z" fill="#7D848F"/>
<path id="Vector 259 (Stroke)" d="M13.0577 13.0577C13.3018 12.8136 13.6984 12.8136 13.9425 13.0577L17.9425 17.0577C18.1865 17.3018 18.1865 17.6984 17.9425 17.9425C17.6984 18.1865 17.3018 18.1865 17.0577 17.9425L13.0577 13.9425C12.8136 13.6984 12.8136 13.3018 13.0577 13.0577Z" fill="#7D848F"/>
</g>
</g>
</svg>
